<svg width="28" height="28" viewBox="0 0 28 28" fill="none" xmlns="http://www.w3.org/2000/svg">
<g clip-path="url(#clip0_107_476)">
<path fill-rule="evenodd" clip-rule="evenodd" d="M8 14C8 15.1046 7.10457 16 6 16C4.89543 16 4 15.1046 4 14C4 12.8954 4.89543 12 6 12C7.10457 12 8 12.8954 8 14ZM16 14C16 15.1046 15.1046 16 14 16C12.8954 16 12 15.1046 12 14C12 12.8954 12.8954 12 14 12C15.1046 12 16 12.8954 16 14ZM22 16C23.1046 16 24 15.1046 24 14C24 12.8954 23.1046 12 22 12C20.8954 12 20 12.8954 20 14C20 15.1046 20.8954 16 22 16Z" fill="white"/>
</g>
<defs>
<clipPath id="clip0_107_476">
<rect width="28" height="28" fill="white"/>
</clipPath>
</defs>
</svg>
