<svg width="18" height="18" viewBox="0 0 18 18" fill="none" xmlns="http://www.w3.org/2000/svg">
<path fill-rule="evenodd" clip-rule="evenodd" d="M0.291233 16.2446C-0.110749 16.6597 -0.0948983 17.3172 0.326637 17.713C0.748173 18.1089 1.41577 18.0933 1.81775 17.6782L8.9999 10.2614L16.1821 17.6782C16.584 18.0933 17.2516 18.1089 17.6732 17.713C18.0947 17.3172 18.1106 16.6597 17.7086 16.2446L10.4573 8.75641L17.2368 1.75538C17.6388 1.34026 17.6229 0.682838 17.2014 0.286978C16.7799 -0.108882 16.1123 -0.0932724 15.7103 0.321842L8.9999 7.25145L2.28952 0.321845C1.88753 -0.0932696 1.21994 -0.108879 0.798406 0.28698C0.37687 0.682841 0.361019 1.34027 0.763001 1.75538L7.54255 8.75641L0.291233 16.2446Z" fill="#B3B3B3"/>
</svg>
