<svg width="32" height="32" viewBox="0 0 32 32" fill="none" xmlns="http://www.w3.org/2000/svg">
<path opacity="0.7" fill-rule="evenodd" clip-rule="evenodd" d="M8.2 9C7.53726 9 7 9.53892 7 10.2037V16.8398C7 17.5 7.5 18 8.2 18H11V20H8C5.74668 20 5 18.1677 5 15.9074V10.6111C5 8.61675 6.21177 7 8.2 7H11V9H8.2ZM24 9H16C15.4477 9 15 9.44772 15 10V23C15 23.5523 15.4477 24 16 24H24C24.5523 24 25 23.5523 25 23V10C25 9.44772 24.5523 9 24 9ZM16 7C14.3431 7 13 8.34315 13 10V23C13 24.6569 14.3431 26 16 26H24C25.6569 26 27 24.6569 27 23V10C27 8.34315 25.6569 7 24 7H16ZM20 22C21.6569 22 23 20.6569 23 19C23 17.3431 21.6569 16 20 16C18.3431 16 17 17.3431 17 19C17 20.6569 18.3431 22 20 22ZM21 13C21 13.5523 20.5523 14 20 14C19.4477 14 19 13.5523 19 13C19 12.4477 19.4477 12 20 12C20.5523 12 21 12.4477 21 13ZM11 23H8V25H11V23Z" fill="white"/>
</svg>
