<svg width="28" height="28" viewBox="0 0 28 28" fill="none" xmlns="http://www.w3.org/2000/svg">
<g clip-path="url(#clip0_107_15)">
<path d="M14.0013 7.06396L13.4902 6.58897C11.3153 4.56735 7.97855 4.63857 5.88479 6.80838L14.0013 7.06396ZM14.0013 7.06396L14.5119 6.58858M14.0013 7.06396L14.5119 6.58858M14.5119 6.58858C16.68 4.57015 20.0233 4.63612 22.1143 6.80779M14.5119 6.58858L22.1143 6.80779M22.1143 6.80779C24.2145 8.9913 24.2923 12.4757 22.3475 14.7498M22.1143 6.80779L22.3475 14.7498M22.3475 14.7498L13.9988 23.4187L5.65217 14.7498C3.70719 12.4755 3.78655 8.98525 5.88456 6.80862L22.3475 14.7498Z" stroke="white" stroke-width="1.5"/>
</g>
<defs>
<clipPath id="clip0_107_15">
<rect width="28" height="28" fill="white"/>
</clipPath>
</defs>
</svg>
