<svg width="32" height="32" viewBox="0 0 32 32" fill="none" xmlns="http://www.w3.org/2000/svg">
<path fill-rule="evenodd" clip-rule="evenodd" d="M22 8H10C8.89543 8 8 8.89543 8 10V18C8 19.1046 8.89543 20 10 20H12V22H10C7.79086 22 6 20.2091 6 18V10C6 7.79086 7.79086 6 10 6H22C24.2091 6 26 7.79086 26 10V18C26 20.2091 24.2091 22 22 22H18.843L20.0141 23.1711C20.4401 23.5971 20.4401 24.2879 20.0141 24.7139C19.588 25.1399 18.8973 25.1399 18.4713 24.7139L15.3536 21.5962C15.1583 21.4009 15.1583 21.0843 15.3536 20.8891L18.4713 17.7714C18.8973 17.3454 19.588 17.3454 20.0141 17.7714C20.4401 18.1974 20.4401 18.8881 20.0141 19.3142L19.3282 20H22C23.1046 20 24 19.1046 24 18V10C24 8.89543 23.1046 8 22 8Z" fill="#BABABA"/>
</svg>
