<svg width="32" height="32" viewBox="0 0 32 32" fill="none" xmlns="http://www.w3.org/2000/svg">
<path opacity="0.7" fill-rule="evenodd" clip-rule="evenodd" d="M16.1388 9.74994L9.47913 13.6672C7.50696 14.8271 7.50696 17.6789 9.47913 18.8388L16.1388 22.7563V9.74994ZM8.46497 11.9433C5.17834 13.8766 5.17834 18.6296 8.46497 20.5627L16.6315 25.3666C17.298 25.7587 18.1388 25.278 18.1388 24.5046V8.0014C18.1388 7.22796 17.298 6.74749 16.6315 7.13958L8.46497 11.9433ZM19.1388 9.25311C20.1237 9.25311 21.0988 9.4472 22.0089 9.82391C22.9191 10.2009 23.7457 10.7534 24.442 11.4499C25.1383 12.1462 25.691 12.9731 26.068 13.883C26.4449 14.7929 26.6388 15.7682 26.6388 16.7531C26.6388 17.738 26.4449 18.7133 26.068 19.6232C25.691 20.5331 25.1383 21.36 24.442 22.0563C23.7457 22.7529 22.9191 23.3054 22.0089 23.6823C21.0988 24.059 20.1237 24.2531 19.1388 24.2531V22.2443C19.86 22.2443 20.5739 22.1022 21.2404 21.8261C21.9064 21.5502 22.5118 21.1457 23.0216 20.6359C23.5314 20.1259 23.9362 19.5207 24.212 18.8544C24.2789 18.6923 24.338 18.5275 24.3893 18.3605C24.549 17.8405 24.63 17.2988 24.63 16.7531C24.63 16.0319 24.4879 15.3181 24.212 14.6518C23.9362 13.9855 23.5314 13.3803 23.0216 12.8703C22.5118 12.3605 21.9064 11.956 21.2404 11.6801C20.5739 11.404 19.86 11.2619 19.1388 11.2619V9.25311ZM21.3312 14.5361C20.7999 13.8954 20.0533 13.4431 19.213 13.2531L19.1388 20.2531C19.9825 20.079 20.7389 19.6408 21.2838 19.0102C21.6237 18.6166 21.8688 18.163 22.0074 17.6799C22.0909 17.3886 22.1354 17.0866 22.1388 16.7809C22.1471 15.9684 21.8624 15.1769 21.3312 14.5361Z" fill="white"/>
</svg>
